<svg width="512" height="512" viewBox="0 0 512 512" fill="none" xmlns="http://www.w3.org/2000/svg">
<path d="M375.5 160H136.5C123.245 160 112.5 170.745 112.5 184V392C112.5 418.51 133.99 440 160.5 440H351.5C378.01 440 399.5 418.51 399.5 392V184C399.5 170.745 388.755 160 375.5 160Z" stroke="#51a145" stroke-width="24" stroke-miterlimit="10"/>
<path d="M160 160V112C160 85.4903 181.49 64 208 64H304C330.51 64 352 85.4903 352 112V160" stroke="#51a145" stroke-width="24" stroke-miterlimit="10" stroke-linecap="round"/>
<path d="M216 280C216 293.255 205.255 304 192 304C178.745 304 168 293.255 168 280C168 266.745 178.745 256 192 256C205.255 256 216 266.745 216 280Z" fill="#51a145"/>
<path d="M304 280C304 293.255 293.255 304 280 304C266.745 304 256 293.255 256 280C256 266.745 266.745 256 280 256C293.255 256 304 266.745 304 280Z" fill="#51a145"/>
<path d="M392 280C392 293.255 381.255 304 368 304C354.745 304 344 293.255 344 280C344 266.745 354.745 256 368 256C381.255 256 392 266.745 392 280Z" fill="#51a145"/>
<path d="M256 368C256 381.255 245.255 392 232 392C218.745 392 208 381.255 208 368C208 354.745 218.745 344 232 344C245.255 344 256 354.745 256 368Z" fill="#51a145"/>
<path d="M344 368C344 381.255 333.255 392 320 392C306.745 392 296 381.255 296 368C296 354.745 306.745 344 320 344C333.255 344 344 354.745 344 368Z" fill="#51a145"/>
</svg>
